# xmcd
#
# Track frame offsets:
#	150
#	16135
#	50890
#	87250
#	111898
#	130160
#	155825
#	189280
#	218930
#	255670
#
# Disc length: 3845 seconds
# Revision: 0
# Processed by: cddbd v1.5.2PL0 Copyright (c) Steve Scherf et al.
# Submitted via: dBpowerAMP V12.0
#
DISCID=890f030a
DTITLE=Gloria Estefan - Tres Deseos (Three Wishes)
DYEAR=1996
DGENRE=Vallenato
TTITLE0=Tres Deseos (Three Wishes) [Single Version]
TTITLE1=Tres Deseos (Three Wishes) [Rosabel's Tribe Dub]
TTITLE2=Tres Deseos (Three Wishes) [The More Tragic Dub]
TTITLE3=Tres Deseos (Three Wishes) [The Under Dub]
TTITLE4=Tres Deseos (Three Wishes) [Bonus Wish Mix]
TTITLE5=Tres Deseos (Three Wishes) [Percapella Beats]
TTITLE6=Tres Deseos (Three Wishes) [Rosabel's Fiesta Mix]
TTITLE7=Tres Deseos (Three Wishes) [Pablo Flores 12” Mix]
TTITLE8=Tres Deseos (Three Wishes) [Rosabel's Tragic Dub]
TTITLE9=Tres Deseos (Three Wishes) [The Three Wish Dub]
EXTD=
EXTT0=
EXTT1=
EXTT2=
EXTT3=
EXTT4=
EXTT5=
EXTT6=
EXTT7=
EXTT8=
EXTT9=
PLAYORDER=
